<svg width="80" height="59" viewBox="0 0 80 59" fill="none" xmlns="http://www.w3.org/2000/svg">
<rect x="57.21" y="21.7303" width="2.78475" height="17.4456" transform="rotate(-90 57.21 21.7303)" fill="#0051B4"/>
<rect x="4.5249" y="21.7303" width="2.78475" height="18.7766" transform="rotate(-90 4.5249 21.7303)" fill="#0051B4"/>
<rect x="31.2778" y="31.796" width="4.56248" height="17.4448" transform="rotate(-90 31.2778 31.796)" fill="#0051B4"/>
<path fill-rule="evenodd" clip-rule="evenodd" d="M50.3329 2.13102C49.369 2.62256 48.4495 3.18843 47.5817 3.8211V58.9577L49.278 58.0919L49.2231 57.9845L49.2235 57.9843C49.2784 58.0917 49.2784 58.0917 49.2785 58.0917L49.279 58.0914L49.28 58.0909L49.2821 58.0898L49.2865 58.0876L49.2956 58.0829L49.3159 58.0725L49.3643 58.0476L49.4916 57.9817C49.5898 57.9307 49.7145 57.8654 49.8637 57.7863C50.0216 57.7026 50.178 57.6171 50.3329 57.5299V2.13102ZM54.8953 54.8667C55.0769 54.7437 55.2559 54.6182 55.4322 54.4903C55.961 54.2092 56.482 53.9025 56.9936 53.57C57.23 53.4164 57.4698 53.259 57.7129 53.0979V1.97439e-05C56.7529 0.0876466 55.8122 0.241749 54.8953 0.457684V54.8667ZM22.2869 0C23.2235 0.0854862 24.1418 0.234255 25.0375 0.441993V54.8166C24.8488 54.6991 24.6567 54.5787 24.4615 54.4554C24.2078 54.2952 23.9588 54.1302 23.7146 53.9608C23.4587 53.8082 23.2049 53.6493 22.9534 53.4841C22.7342 53.3401 22.512 53.1929 22.2869 53.0425V0ZM29.9988 57.7097C29.8647 57.6373 29.7318 57.5636 29.6 57.4887V2.09694C30.5882 2.59631 31.5303 3.17367 32.4181 3.82096V58.9761L30.5728 58.015L30.7404 57.6931L30.7401 57.693L30.6041 57.9539L30.5723 58.0147L30.5718 58.0144L30.5708 58.0139L30.5687 58.0129L30.5646 58.0107L30.5557 58.0061L30.536 57.9958L30.4889 57.9711L30.3644 57.9054C30.2682 57.8544 30.1456 57.789 29.9988 57.7097ZM74.656 6.55442V37.1441C74.9251 36.7614 75.183 36.3669 75.429 35.9608C76.3075 34.5102 77.1659 32.8623 77.8982 31.0264C78.4736 29.5836 78.8728 28.1143 79.106 26.6421C79.5843 25.0714 79.8794 23.4173 79.9654 21.7031C79.9882 21.2482 80 20.788 80 20.3228C80 15.0169 77.9751 10.1839 74.656 6.55442ZM0 20.3228C0 15.1046 1.95849 10.3438 5.18051 6.73534V36.7497C5.02956 36.4885 4.88501 36.225 4.74682 35.9594C4.09028 35.0359 3.50204 34.0451 2.9926 32.9906C2.14371 31.2335 1.35839 29.2077 0.80451 26.9392C0.599148 26.098 0.449154 25.2564 0.352194 24.418C0.190836 23.5456 0.0844917 22.6528 0.0370502 21.7429C0.0126781 21.2754 0 20.8019 0 20.3228Z" fill="#0051B4"/>
</svg>
