<svg width="628" height="562" viewBox="0 0 628 562" fill="none" xmlns="http://www.w3.org/2000/svg">
<path d="M628 493.877H-63V494.254H628V493.877Z" fill="#EBEBEB"/>
<path d="M558.762 518.148H512.99V518.526H558.762V518.148Z" fill="#EBEBEB"/>
<path d="M314.59 513.427H296.776V513.804H314.59V513.427Z" fill="#EBEBEB"/>
<path d="M420.244 515.026H382.736V515.403H420.244V515.026Z" fill="#EBEBEB"/>
<path d="M511.608 504.15H434.064V504.527H511.608V504.15Z" fill="#EBEBEB"/>
<path d="M46.1642 521.603H9.49976V521.98H46.1642V521.603Z" fill="#EBEBEB"/>
<path d="M90.2499 521.603H58.4639V521.98H90.2499V521.603Z" fill="#EBEBEB"/>
<path d="M202.081 513.246H118.042V513.623H202.081V513.246Z" fill="#EBEBEB"/>
<path d="M264.534 426.599H-2.31645C-4.40693 426.595 -6.41055 425.685 -7.88745 424.07C-9.36435 422.456 -10.1939 420.267 -10.1938 417.985V8.53801C-10.1756 6.26929 -9.33812 4.10002 -7.86318 2.50139C-6.38824 0.902763 -4.39502 0.00388643 -2.31645 0H264.534C266.627 0 268.634 0.907484 270.114 2.52282C271.594 4.13815 272.425 6.32901 272.425 8.61343V417.985C272.425 420.27 271.594 422.461 270.114 424.076C268.634 425.691 266.627 426.599 264.534 426.599ZM-2.31645 0.301697C-4.3153 0.305693 -6.23103 1.17521 -7.64314 2.71938C-9.05525 4.26356 -9.84835 6.35621 -9.84835 8.53801V417.985C-9.84835 420.167 -9.05525 422.26 -7.64314 423.804C-6.23103 425.348 -4.3153 426.217 -2.31645 426.221H264.534C266.534 426.217 268.451 425.348 269.866 423.805C271.28 422.261 272.076 420.168 272.08 417.985V8.53801C272.076 6.35483 271.28 4.2622 269.866 2.71846C268.451 1.17472 266.534 0.305685 264.534 0.301697H-2.31645Z" fill="#EBEBEB"/>
<path d="M563.474 426.599H296.61C294.518 426.595 292.513 425.686 291.034 424.071C289.555 422.457 288.723 420.268 288.719 417.985V8.53801C288.741 6.26791 289.581 4.09866 291.059 2.50045C292.536 0.902236 294.53 0.00384405 296.61 0H563.474C565.551 0.00785089 567.54 0.908482 569.012 2.50669C570.484 4.10489 571.32 6.27189 571.338 8.53801V417.985C571.338 420.264 570.51 422.451 569.036 424.065C567.563 425.68 565.562 426.591 563.474 426.599ZM296.61 0.301697C294.61 0.305685 292.693 1.17472 291.279 2.71846C289.864 4.2622 289.068 6.35483 289.064 8.53801V417.985C289.068 420.168 289.864 422.261 291.279 423.805C292.693 425.348 294.61 426.217 296.61 426.221H563.474C565.475 426.217 567.392 425.348 568.806 423.805C570.22 422.261 571.016 420.168 571.02 417.985V8.53801C571.016 6.35483 570.22 4.2622 568.806 2.71846C567.392 1.17472 565.475 0.305685 563.474 0.301697H296.61Z" fill="#EBEBEB"/>
<path d="M553.828 34.6951H344.662V493.877H553.828V34.6951Z" fill="#FAFAFA"/>
<path d="M486.552 93.5259H411.924V207.16H486.552V93.5259Z" fill="white"/>
<path d="M553.814 493.877H555.113V34.6951H553.814V493.877Z" fill="#EBEBEB"/>
<path d="M543.449 493.877H542.067V47.5172H356.409V493.877H355.027V46.0087H543.449V493.877Z" fill="#E0E0E0"/>
<path d="M527.377 272.779H498.534C497.958 272.815 497.38 272.722 496.838 272.506C496.295 272.29 495.799 271.955 495.379 271.522C494.959 271.089 494.625 270.567 494.396 269.988C494.167 269.409 494.05 268.786 494.05 268.155C494.05 267.525 494.167 266.901 494.396 266.322C494.625 265.743 494.959 265.221 495.379 264.788C495.799 264.356 496.295 264.021 496.838 263.805C497.38 263.589 497.958 263.496 498.534 263.532H527.377C527.953 263.496 528.531 263.589 529.073 263.805C529.616 264.021 530.112 264.356 530.532 264.788C530.952 265.221 531.286 265.743 531.515 266.322C531.744 266.901 531.861 267.525 531.861 268.155C531.861 268.786 531.744 269.409 531.515 269.988C531.286 270.567 530.952 271.089 530.532 271.522C530.112 271.955 529.616 272.29 529.073 272.506C528.531 272.722 527.953 272.815 527.377 272.779ZM498.534 265.04C498.143 265.01 497.75 265.069 497.38 265.212C497.01 265.355 496.671 265.58 496.384 265.872C496.097 266.164 495.869 266.518 495.712 266.91C495.556 267.303 495.475 267.727 495.475 268.155C495.475 268.584 495.556 269.007 495.712 269.4C495.869 269.793 496.097 270.146 496.384 270.439C496.671 270.731 497.01 270.955 497.38 271.098C497.75 271.242 498.143 271.3 498.534 271.27H527.377C527.768 271.3 528.161 271.242 528.531 271.098C528.901 270.955 529.24 270.731 529.527 270.439C529.814 270.146 530.043 269.793 530.199 269.4C530.355 269.007 530.436 268.584 530.436 268.155C530.436 267.727 530.355 267.303 530.199 266.91C530.043 266.518 529.814 266.164 529.527 265.872C529.24 265.58 528.901 265.355 528.531 265.212C528.161 265.069 527.768 265.01 527.377 265.04H498.534Z" fill="#E0E0E0"/>
<path d="M208.895 163.58H14.3506V181.802H208.895V163.58Z" fill="#FAFAFA"/>
<path d="M208.881 181.802H16.8381V493.877H208.881V181.802Z" fill="#FAFAFA"/>
<path d="M208.895 493.877H222.991L222.991 163.595H208.895L208.895 493.877Z" fill="#F0F0F0"/>
<path d="M107.249 199.904H32.9661V384.316H107.249V199.904Z" fill="#F0F0F0"/>
<path d="M86.0211 199.904H68.594L54.1936 384.301H71.6068L86.0211 199.904Z" fill="white"/>
<path d="M190.348 479.697H35.3846C34.5134 479.693 33.6789 479.314 33.0629 478.641C32.4468 477.969 32.0991 477.058 32.0955 476.107V399.174C32.0991 398.223 32.4468 397.313 33.0629 396.64C33.6789 395.968 34.5134 395.588 35.3846 395.584H190.348C191.22 395.588 192.054 395.968 192.67 396.64C193.286 397.313 193.634 398.223 193.637 399.174V476.107C193.634 477.058 193.286 477.969 192.67 478.641C192.054 479.314 191.22 479.693 190.348 479.697ZM35.3846 397.394C34.9716 397.398 34.5764 397.579 34.2843 397.898C33.9923 398.217 33.8266 398.648 33.823 399.099V476.032C33.8266 476.482 33.9923 476.914 34.2843 477.233C34.5764 477.551 34.9716 477.732 35.3846 477.736H190.348C190.761 477.732 191.156 477.551 191.449 477.233C191.741 476.914 191.906 476.482 191.91 476.032V399.099C191.906 398.648 191.741 398.217 191.449 397.898C191.156 397.579 190.761 397.398 190.348 397.394H35.3846Z" fill="#F0F0F0"/>
<path d="M180.232 414.093C179.515 414.093 178.815 413.861 178.219 413.426C177.623 412.991 177.159 412.373 176.885 411.65C176.612 410.927 176.541 410.132 176.682 409.365C176.823 408.598 177.169 407.893 177.677 407.341C178.184 406.789 178.831 406.414 179.534 406.263C180.237 406.112 180.966 406.193 181.627 406.494C182.289 406.796 182.853 407.305 183.249 407.956C183.645 408.608 183.855 409.374 183.853 410.156C183.853 410.675 183.759 411.188 183.577 411.666C183.395 412.145 183.128 412.58 182.791 412.946C182.455 413.311 182.056 413.601 181.617 413.798C181.177 413.995 180.707 414.095 180.232 414.093ZM180.232 408.06C179.857 408.06 179.491 408.181 179.18 408.408C178.869 408.635 178.626 408.958 178.483 409.335C178.339 409.713 178.302 410.128 178.375 410.529C178.448 410.93 178.628 411.298 178.893 411.587C179.158 411.876 179.495 412.073 179.863 412.153C180.23 412.233 180.61 412.192 180.956 412.035C181.302 411.879 181.598 411.614 181.806 411.274C182.014 410.934 182.125 410.535 182.125 410.126C182.123 409.857 182.073 409.59 181.977 409.342C181.881 409.094 181.741 408.869 181.565 408.68C181.389 408.491 181.181 408.341 180.952 408.24C180.723 408.139 180.479 408.088 180.232 408.09V408.06Z" fill="#F0F0F0"/>
<path d="M34.887 199.904H32.9661V384.316H34.887V199.904Z" fill="#EBEBEB"/>
<path d="M192.767 199.904H118.484V384.316H192.767V199.904Z" fill="#F0F0F0"/>
<path d="M152.896 199.904H145.723L131.323 384.301H138.496L152.896 199.904Z" fill="white"/>
<path d="M163.689 199.904H156.517L142.103 384.301H149.275L163.689 199.904Z" fill="white"/>
<path d="M120.405 199.904H118.484V384.316H120.405V199.904Z" fill="#EBEBEB"/>
<path d="M208.881 181.802H16.8381V184.11H208.881V181.802Z" fill="#EBEBEB"/>
<path d="M247.024 31.2256H47.5601V136.321H247.024V31.2256Z" fill="#FAFAFA"/>
<path d="M172.907 122.806C165.836 122.806 158.924 120.517 153.044 116.229C147.165 111.941 142.583 105.846 139.877 98.7151C137.171 91.5843 136.463 83.7378 137.842 76.1678C139.222 68.5978 142.627 61.6443 147.627 56.1866C152.627 50.729 158.997 47.0123 165.932 45.5065C172.868 44.0007 180.056 44.7735 186.589 47.7272C193.122 50.6809 198.706 55.6827 202.634 62.1003C206.563 68.5178 208.66 76.0628 208.66 83.7811C208.645 94.1261 204.874 104.043 198.172 111.358C191.47 118.673 182.385 122.79 172.907 122.806ZM172.907 46.2651C166.11 46.2651 159.464 48.4654 153.812 52.5877C148.16 56.71 143.755 62.5692 141.153 69.4243C138.552 76.2795 137.871 83.8227 139.197 91.1001C140.524 98.3775 143.797 105.062 148.604 110.309C153.411 115.556 159.535 119.129 166.202 120.576C172.869 122.024 179.78 121.281 186.06 118.441C192.341 115.602 197.709 110.793 201.485 104.624C205.262 98.4544 207.278 91.201 207.278 83.7811C207.267 73.8349 203.642 64.2995 197.199 57.2665C190.755 50.2335 182.02 46.2771 172.907 46.2651Z" fill="white"/>
<path d="M212.833 56.0703C214.516 51.1489 214.814 45.7913 213.69 40.6838L209.959 40.548C210.791 45.5065 210.227 50.6236 208.342 55.2255C194.757 55.1048 192.352 70.7478 181.503 67.2934C177.63 66.2228 173.593 66.0634 169.66 66.8258C168.024 67.0989 166.407 67.4971 164.823 68.0174C150.45 72.1054 132.898 81.8804 129.775 96.5579L133.106 97.2518C133.106 97.2518 135.275 86.3606 149.69 78.5919C148.319 80.5584 147.302 82.7899 146.691 85.1689C137.832 120.739 197.908 114.479 213.842 102.064C233.328 86.964 225.023 61.3198 212.833 56.0703Z" fill="#EBEBEB"/>
<path d="M117.586 43.1275H57.386V47.3211H117.586V43.1275Z" fill="#EBEBEB"/>
<path d="M102.384 53.8226H57.386V58.0162H102.384V53.8226Z" fill="#EBEBEB"/>
<path d="M117.586 75.1978H57.386V79.3914H117.586V75.1978Z" fill="#EBEBEB"/>
<path d="M86.4909 85.893H57.386V90.0865H86.4909V85.893Z" fill="#EBEBEB"/>
<path d="M111.934 85.893H91.2036V90.0865H111.934V85.893Z" fill="#EBEBEB"/>
<path d="M105.839 96.5881H57.386V100.782H105.839V96.5881Z" fill="#EBEBEB"/>
<path d="M117.586 107.268H57.386V111.462H117.586V107.268Z" fill="#EBEBEB"/>
<path d="M310.707 493.877H253.893C253.25 493.876 252.629 493.619 252.146 493.156C251.663 492.693 251.351 492.054 251.267 491.358L239.796 391.723C239.751 391.317 239.786 390.905 239.897 390.515C240.008 390.124 240.194 389.764 240.442 389.458C240.69 389.151 240.995 388.906 241.336 388.737C241.677 388.568 242.047 388.481 242.422 388.479H322.177C322.552 388.481 322.922 388.568 323.263 388.737C323.604 388.906 323.909 389.151 324.157 389.458C324.405 389.764 324.591 390.124 324.702 390.515C324.814 390.905 324.848 391.317 324.803 391.723L313.332 491.358C313.252 492.055 312.94 492.696 312.456 493.16C311.973 493.624 311.35 493.879 310.707 493.877Z" fill="#EBEBEB"/>
<path opacity="0.7" d="M238.566 386.428C236.493 388.057 238.138 413.279 240.86 418.845C243.583 424.411 259.835 419.629 279.238 417.759C298.642 415.888 321.887 423.371 322.896 418.845C323.905 414.32 329.571 389.701 326.6 386.428C324.223 383.803 295.643 383.803 283.08 385.372C270.518 386.941 242.989 382.973 238.566 386.428Z" fill="#F5F5F5"/>
<path d="M282.5 562C430.488 562 550.456 554.355 550.456 544.924C550.456 535.493 430.488 527.848 282.5 527.848C134.512 527.848 14.5439 535.493 14.5439 544.924C14.5439 554.355 134.512 562 282.5 562Z" fill="#F5F5F5"/>
<path d="M163.648 69.9634C153.214 59.2682 136.008 57.2167 129.568 68.3493C123.127 79.4819 126.804 91.2481 113.592 103.587C104.609 112.02 111.27 137.86 162.514 135.492C186.769 134.376 178.56 106.831 177.91 93.8125C177.26 80.7943 177.219 64.8647 163.648 69.9634Z" fill="#263238"/>
<path d="M143.457 524.077L131.046 524.605L130.812 509.942L143.222 509.414L143.457 524.077Z" fill="#B55B52"/>
<path d="M130.273 521.799H144.3C144.547 521.796 144.788 521.886 144.981 522.053C145.175 522.221 145.31 522.456 145.364 522.719L147.796 534.862C147.852 535.158 147.847 535.464 147.78 535.758C147.713 536.051 147.587 536.324 147.41 536.557C147.234 536.79 147.012 536.977 146.761 537.104C146.509 537.231 146.235 537.295 145.958 537.291C141.052 537.201 138.675 536.884 132.498 536.884C128.697 536.884 118.844 537.321 113.592 537.321C108.34 537.321 107.677 531.649 109.819 531.136C119.493 528.828 125.118 525.661 128.214 522.629C128.781 522.082 129.516 521.786 130.273 521.799Z" fill="#263238"/>
<path opacity="0.2" d="M130.812 509.957L130.922 516.776L143.332 516.187L143.222 509.429L130.812 509.957Z" fill="black"/>
<path d="M112.514 228.761C109.75 245.023 112.928 324.505 117.144 359.607C122.754 406.219 128.559 514.453 128.559 514.453L145.143 513.367C145.143 513.367 149.289 399.386 145.903 361.96C147.824 313.794 152.578 229.666 152.578 229.666L112.514 228.761Z" fill="#407BFF"/>
<path opacity="0.2" d="M149.828 282.086C150.408 269.882 142.489 259.036 139.297 282.086C137.279 296.733 141.453 322.408 146.926 340.54C147.769 321.669 148.847 300.655 149.828 282.086Z" fill="black"/>
<path d="M234.641 478.475L226.57 486.893L215.639 474.101L223.696 465.699L234.641 478.475Z" fill="#B55B52"/>
<path d="M224.456 487.119L232.748 474.719C232.883 474.504 233.088 474.352 233.322 474.296C233.556 474.24 233.8 474.284 234.005 474.418L243.679 480.632C243.918 480.805 244.121 481.028 244.279 481.289C244.436 481.549 244.544 481.842 244.596 482.149C244.647 482.456 244.642 482.771 244.579 483.075C244.517 483.38 244.399 483.667 244.232 483.921C241.289 488.19 239.672 490.076 236.037 495.536C233.798 498.885 231.214 503.501 228.132 508.147C225.05 512.793 220.835 509.46 221.747 507.212C225.893 497.12 224.138 494.314 223.917 489.502C223.846 488.664 224.036 487.825 224.456 487.119Z" fill="#263238"/>
<path opacity="0.2" d="M215.639 474.116L221.277 480.693L229.279 472.215L223.71 465.699L215.639 474.116Z" fill="black"/>
<path d="M131.751 229.199C131.751 229.199 149.607 331.775 154.25 371.599C157.014 395.388 217.96 480.979 217.96 480.979L228.367 469.017C228.367 469.017 206.061 406.355 179.195 369.186C178.131 325.621 182.664 253.908 167.241 229.998L131.751 229.199Z" fill="#407BFF"/>
<path d="M116.079 150.547C116.079 159.356 115.706 168 115.112 176.734C114.518 185.468 113.73 194.157 112.445 202.906L112.21 204.55L111.892 206.406C111.652 207.622 111.39 208.814 111.104 209.981C110.496 212.289 109.722 214.506 109.031 216.648C107.519 220.848 105.803 224.957 103.89 228.957C100.124 236.78 95.8323 244.287 91.0515 251.419C90.5468 252.158 89.8098 252.668 88.9819 252.85C88.1539 253.033 87.2934 252.876 86.5654 252.408C85.8373 251.941 85.293 251.196 85.037 250.318C84.781 249.439 84.8312 248.488 85.178 247.647V247.557C88.4257 239.894 91.5766 232.035 94.3268 224.251C95.7088 220.359 96.9388 216.422 97.9891 212.56C98.4866 210.629 98.9289 208.714 99.2744 206.843C99.454 205.908 99.5784 204.988 99.7028 204.083L99.841 202.74L99.9792 201.231C100.684 192.874 101.099 184.397 101.486 175.904C101.873 167.411 102.052 158.843 102.273 150.426V150.35C102.303 148.35 103.059 146.444 104.375 145.052C105.692 143.661 107.461 142.897 109.294 142.929C111.127 142.961 112.872 143.786 114.148 145.223C115.423 146.66 116.123 148.591 116.093 150.592L116.079 150.547Z" fill="#B55B52"/>
<path d="M111.574 139.519C94.6032 144.935 96.7868 178.634 96.7868 178.634L120.916 185.724C120.916 185.724 124.924 161.046 124.565 152.191C124.206 142.989 120.93 136.548 111.574 139.519Z" fill="#407BFF"/>
<path d="M86.9744 245.702L78.4751 253.591L90.3879 258.901C90.3879 258.901 94.0779 252.761 92.3642 246.938L86.9744 245.702Z" fill="#B55B52"/>
<path d="M79.9816 265.629L85.4129 266.368C86.0162 266.45 86.6276 266.313 87.1523 265.977C87.677 265.642 88.0857 265.127 88.3151 264.512L90.3881 258.901L78.4752 253.591L77.5769 262.295C77.4949 263.084 77.7015 263.877 78.1517 264.501C78.6019 265.125 79.2594 265.53 79.9816 265.629Z" fill="#B55B52"/>
<path d="M106.088 148.284C105.327 182.074 112.445 206.737 112.528 228.761L167.241 229.998C166.84 207.944 167.006 193.553 175.699 154.031C176.077 152.31 176.122 150.521 175.831 148.78C175.54 147.038 174.919 145.382 174.009 143.917C173.099 142.452 171.918 141.211 170.544 140.272C169.169 139.333 167.63 138.717 166.025 138.464C162.75 137.936 159.115 137.438 155.425 137.166C147.156 136.33 138.843 136.138 130.549 136.593C124.717 137.046 118.443 137.981 113.965 138.72C111.838 139.065 109.888 140.209 108.45 141.955C107.012 143.7 106.177 145.938 106.088 148.284Z" fill="#407BFF"/>
<path d="M157.083 179.509L140.859 179.389C140.697 179.396 140.536 179.366 140.386 179.299C140.237 179.232 140.102 179.131 139.992 179.002C139.881 178.873 139.798 178.719 139.747 178.552C139.697 178.384 139.68 178.206 139.698 178.031L140.596 169.644C140.655 169.27 140.832 168.93 141.098 168.684C141.363 168.439 141.699 168.303 142.047 168.301L158.258 168.422C158.419 168.412 158.58 168.441 158.729 168.506C158.879 168.571 159.014 168.671 159.125 168.799C159.235 168.926 159.319 169.079 159.37 169.246C159.42 169.413 159.437 169.59 159.419 169.765L158.521 178.167C158.465 178.54 158.29 178.879 158.027 179.125C157.764 179.371 157.43 179.507 157.083 179.509Z" fill="white"/>
<path opacity="0.4" d="M130.632 136.608C130.632 136.608 121.704 143.426 131.143 160.533C138.893 152.305 147.015 144.506 155.48 137.166L130.632 136.608Z" fill="white"/>
<path d="M153.601 106.574C151.873 115.263 149.994 131.223 155.48 137.166C146.853 140.876 138.898 146.228 131.986 152.975C125.919 140.817 130.604 136.593 130.604 136.593C139.56 134.481 139.477 127.256 138.053 120.437L153.601 106.574Z" fill="#B55B52"/>
<path opacity="0.2" d="M151.915 108.083C151.699 113.274 150.469 118.356 148.308 122.987C146.801 126.169 142.78 127.512 138.73 127.768C138.864 125.303 138.645 122.829 138.081 120.437L151.915 108.083Z" fill="black"/>
<path d="M166.55 95.9394C162.404 109.848 161.022 115.821 152.73 121.252C140.361 129.413 125.615 120.89 125.809 105.941C126.002 92.485 132.719 72.0149 146.636 69.9181C149.717 69.4311 152.862 69.8133 155.77 71.0282C158.678 72.2432 161.253 74.2505 163.25 76.859C165.246 79.4675 166.597 82.5904 167.175 85.9303C167.753 89.2702 167.538 92.716 166.55 95.9394Z" fill="#B55B52"/>
<path d="M132.76 77.6717C139.67 79.7987 156.503 81.3826 159.875 79.1802C156.71 84.4901 159.723 99.0017 164.615 102.516C171.208 96.7389 172.672 82.7704 166.578 75.8465C160.483 68.9225 141.218 60.641 132.76 77.6717Z" fill="#263238"/>
<path d="M168.485 104.447C168.049 105.772 167.374 106.989 166.5 108.025C165.627 109.061 164.573 109.896 163.399 110.481C160.276 111.99 158.203 109.093 158.645 105.579C159.046 102.426 161.16 97.825 164.505 97.7647C165.226 97.7756 165.935 97.9803 166.567 98.3609C167.199 98.7414 167.735 99.2861 168.129 99.9466C168.522 100.607 168.76 101.363 168.823 102.148C168.885 102.933 168.769 103.723 168.485 104.447Z" fill="#B55B52"/>
<path d="M168.126 226.514L170.503 231.929C170.682 232.336 170.226 232.759 169.59 232.744L112.196 231.431C111.712 231.431 111.311 231.145 111.284 230.798L110.883 225.443C110.883 225.081 111.298 224.779 111.837 224.779L167.255 226.046C167.425 226.035 167.594 226.072 167.747 226.154C167.899 226.236 168.03 226.36 168.126 226.514Z" fill="#263238"/>
<path d="M160.566 233.106H162.045C162.335 233.106 162.57 232.94 162.556 232.744L161.989 225.774C161.989 225.578 161.713 225.397 161.423 225.397H159.93C159.64 225.397 159.419 225.548 159.433 225.759L159.986 232.713C160.013 232.94 160.262 233.106 160.566 233.106Z" fill="#407BFF"/>
<path d="M116.356 232.11H117.848C118.139 232.11 118.373 231.959 118.36 231.748L117.793 224.779C117.793 224.583 117.517 224.417 117.226 224.402H115.734C115.444 224.402 115.209 224.553 115.236 224.764L115.789 231.718C115.817 231.929 116.066 232.095 116.356 232.11Z" fill="#407BFF"/>
<path d="M138.454 232.608H139.947C140.237 232.608 140.472 232.457 140.458 232.246L139.891 225.292C139.891 225.081 139.615 224.915 139.325 224.915H137.832C137.542 224.915 137.321 225.081 137.335 225.277L137.887 232.246C137.915 232.427 138.164 232.608 138.454 232.608Z" fill="#407BFF"/>
<path d="M146.663 94.7779C146.387 95.9244 145.613 96.7088 144.922 96.5127C144.231 96.3166 143.899 95.2305 144.162 94.084C144.424 92.9376 145.212 92.1532 145.903 92.3493C146.594 92.5454 146.926 93.6315 146.663 94.7779Z" fill="#263238"/>
<path d="M134.75 91.4592C134.488 92.6208 133.714 93.3901 133.023 93.194C132.332 92.9979 131.986 91.9269 132.263 90.7653C132.539 89.6038 133.299 88.8496 133.99 89.0306C134.681 89.2116 135.027 90.3128 134.75 91.4592Z" fill="#263238"/>
<path d="M134.28 89.1815L131.931 87.673C131.931 87.673 132.732 90.2072 134.28 89.1815Z" fill="#263238"/>
<path d="M137.39 94.3103C135.843 96.6744 134.006 98.796 131.931 100.616C132.369 101.182 132.915 101.638 133.531 101.95C134.146 102.263 134.817 102.425 135.496 102.426L137.39 94.3103Z" fill="#A02724"/>
<path d="M138.053 106.936C138.005 106.891 137.969 106.831 137.949 106.765C137.93 106.698 137.927 106.627 137.943 106.559C137.955 106.515 137.976 106.475 138.003 106.44C138.03 106.405 138.063 106.376 138.1 106.355C138.137 106.334 138.178 106.321 138.22 106.317C138.262 106.314 138.304 106.319 138.344 106.333C139.634 106.775 141.002 106.879 142.337 106.638C143.672 106.397 144.936 105.817 146.027 104.945C146.092 104.885 146.175 104.855 146.259 104.862C146.343 104.869 146.422 104.913 146.477 104.983C146.532 105.053 146.559 105.144 146.552 105.236C146.546 105.328 146.506 105.413 146.442 105.473C145.274 106.435 143.909 107.075 142.466 107.338C141.022 107.6 139.541 107.478 138.15 106.982L138.053 106.936Z" fill="#263238"/>
<path d="M153.158 89.4832C153.075 89.4015 153.004 89.3045 152.951 89.1965C152.666 88.3789 152.206 87.6473 151.61 87.0623C151.014 86.4773 150.299 86.0558 149.524 85.8326C149.357 85.8006 149.209 85.6976 149.112 85.5463C149.014 85.3949 148.976 85.2076 149.005 85.0256C149.035 84.8435 149.129 84.6817 149.268 84.5756C149.407 84.4695 149.578 84.4279 149.745 84.4599C150.731 84.7261 151.644 85.2455 152.408 85.975C153.173 86.7045 153.766 87.6228 154.14 88.6535C154.188 88.7953 154.194 88.9504 154.157 89.0962C154.119 89.2419 154.039 89.3706 153.929 89.4634C153.82 89.5561 153.686 89.6081 153.547 89.6116C153.408 89.6152 153.272 89.5702 153.158 89.4832Z" fill="#263238"/>
<path d="M132.401 84.128L132.318 84.0375C132.199 83.9074 132.132 83.7311 132.132 83.5473C132.132 83.3634 132.199 83.1871 132.318 83.057C133.048 82.3096 133.928 81.7604 134.889 81.4538C135.849 81.1471 136.862 81.0917 137.846 81.2921C137.928 81.3148 138.005 81.3553 138.073 81.4111C138.141 81.4669 138.197 81.5369 138.24 81.6171C138.282 81.6972 138.31 81.7858 138.321 81.8776C138.331 81.9695 138.325 82.0628 138.302 82.1519C138.26 82.3299 138.154 82.4822 138.009 82.5756C137.864 82.6689 137.691 82.6956 137.528 82.6497C136.74 82.4875 135.927 82.5329 135.158 82.7821C134.389 83.0313 133.685 83.4772 133.106 84.0828C133.005 84.1655 132.885 84.214 132.76 84.222C132.634 84.2301 132.509 84.1974 132.401 84.128Z" fill="#263238"/>
<path d="M175.685 149.129C179.707 154.936 183.466 160.789 187.114 166.868C188.925 169.885 190.721 172.902 192.421 176.161C194.252 179.456 195.895 182.872 197.341 186.388C197.778 187.484 198.157 188.607 198.474 189.752C198.704 190.635 198.862 191.539 198.944 192.452C198.967 192.819 198.967 193.187 198.944 193.553V194.232C198.919 194.531 198.877 194.828 198.82 195.122L198.723 195.59V195.801V195.967L198.612 196.299C197.963 198.109 197.451 199.934 196.678 201.684C195.276 205.27 193.593 208.717 191.647 211.987C189.643 215.288 187.297 218.325 184.654 221.038C183.308 222.416 181.861 223.672 180.329 224.794C179.541 225.352 178.739 225.895 177.91 226.393L176.597 227.087C176.1 227.328 175.74 227.494 175.022 227.781L172.396 220.902C172.583 220.702 172.781 220.516 172.99 220.344L173.75 219.62C174.262 219.122 174.759 218.579 175.243 218.021C176.227 216.868 177.15 215.654 178.007 214.385C179.695 211.795 181.166 209.043 182.402 206.164C182.982 204.656 183.618 203.238 184.101 201.639C184.585 200.04 185.124 198.622 185.566 197.113C186.009 195.605 186.354 193.946 186.782 192.377V192.09V191.939V192.075V192.377C186.782 192.558 186.713 192.829 186.7 192.935C186.693 193.05 186.693 193.166 186.7 193.282V193.719C186.7 194.066 186.7 193.961 186.7 193.81C186.7 193.659 186.313 192.844 186.022 192.211C184.765 189.631 183.079 186.66 181.351 183.824C179.624 180.988 177.827 178.076 175.989 175.225C172.327 169.508 168.554 163.731 164.85 158.059L175.685 149.129Z" fill="#B55B52"/>
<path d="M178.684 226.001L168.029 234.222L163.247 222.335C163.247 222.335 169.715 218.549 174.814 221.083L178.684 226.001Z" fill="#B55B52"/>
<path d="M160.608 235.202L157.94 231.145C157.434 230.362 157.227 229.395 157.364 228.448C157.501 227.502 157.97 226.651 158.673 226.076L163.247 222.335L168.029 234.222L165.099 236.198C164.374 236.684 163.507 236.851 162.673 236.667C161.84 236.482 161.101 235.959 160.608 235.202Z" fill="#B55B52"/>
<path d="M154.361 145.538C150.74 161.242 173.073 188.123 173.073 188.123L191.855 166.838C191.855 166.838 183.272 146.836 172.064 140.56C164.242 136.186 155.964 138.614 154.361 145.538Z" fill="#407BFF"/>
<path d="M146.193 92.5001L143.844 90.9916C143.844 90.9916 144.631 93.5259 146.193 92.5001Z" fill="#263238"/>
<path d="M122.188 187.489C122.087 187.488 121.988 187.455 121.905 187.393C121.821 187.332 121.756 187.244 121.718 187.142C121.673 187.008 121.678 186.86 121.733 186.73C121.787 186.6 121.886 186.499 122.008 186.448L124.164 185.543C126.183 184.729 127.927 183.262 129.162 181.337C130.397 179.413 131.064 177.122 131.074 174.773L131.226 152.719C131.27 151.04 130.784 149.395 129.85 148.06C128.916 146.726 127.59 145.781 126.095 145.386C124.599 144.99 123.025 145.167 121.634 145.886C120.244 146.606 119.122 147.825 118.456 149.34L109.114 168.95C108.11 171.02 107.705 173.374 107.952 175.701C108.199 178.028 109.086 180.218 110.496 181.983L112.016 183.869C112.067 183.921 112.108 183.984 112.136 184.054C112.163 184.124 112.177 184.199 112.175 184.276C112.174 184.352 112.159 184.427 112.129 184.496C112.1 184.565 112.057 184.627 112.005 184.677C111.952 184.727 111.89 184.764 111.824 184.786C111.757 184.809 111.686 184.815 111.617 184.806C111.548 184.797 111.481 184.772 111.421 184.732C111.362 184.693 111.31 184.64 111.27 184.578L109.75 182.526C108.193 180.608 107.21 178.217 106.931 175.673C106.652 173.128 107.09 170.551 108.188 168.286L117.53 148.676C118.329 147.002 119.62 145.671 121.197 144.896C122.773 144.121 124.542 143.948 126.22 144.404C127.897 144.861 129.385 145.92 130.444 147.412C131.502 148.904 132.07 150.741 132.055 152.628L131.903 174.682C131.892 177.24 131.17 179.735 129.833 181.836C128.495 183.936 126.605 185.545 124.413 186.448L122.257 187.338L122.188 187.489Z" fill="#263238"/>
<path d="M131.572 157.636C131.443 157.633 131.321 157.576 131.228 157.479C131.136 157.381 131.081 157.249 131.074 157.108C130.878 155.365 130.203 153.728 129.137 152.412C128.072 151.097 126.666 150.164 125.105 149.738C123.545 149.311 121.902 149.411 120.395 150.024C118.887 150.637 117.585 151.734 116.66 153.171C116.628 153.234 116.585 153.289 116.534 153.333C116.483 153.377 116.424 153.41 116.361 153.43C116.298 153.45 116.233 153.455 116.168 153.447C116.103 153.439 116.04 153.417 115.983 153.382C115.926 153.348 115.875 153.301 115.835 153.245C115.794 153.189 115.764 153.125 115.746 153.057C115.728 152.988 115.722 152.916 115.73 152.845C115.737 152.774 115.757 152.706 115.789 152.643C116.818 150.984 118.288 149.71 120.002 148.993C121.715 148.277 123.589 148.152 125.37 148.636C127.15 149.119 128.752 150.189 129.958 151.699C131.163 153.209 131.915 155.087 132.111 157.078C132.111 157.221 132.061 157.359 131.971 157.463C131.881 157.566 131.758 157.629 131.627 157.636H131.572Z" fill="#263238"/>
<path d="M126.182 145.584C126.1 145.582 126.02 145.56 125.948 145.518C125.876 145.476 125.814 145.416 125.767 145.342C125.515 144.731 125.384 144.067 125.384 143.396C125.384 142.725 125.515 142.062 125.767 141.45C126.126 140.234 126.731 139.121 127.537 138.194C128.343 137.267 129.33 136.55 130.425 136.095C130.485 136.069 130.55 136.057 130.615 136.06C130.68 136.063 130.744 136.081 130.802 136.112C130.861 136.143 130.913 136.187 130.955 136.242C130.997 136.296 131.028 136.359 131.047 136.427C131.087 136.561 131.077 136.707 131.021 136.834C130.964 136.96 130.864 137.058 130.743 137.106C129.805 137.525 128.963 138.162 128.273 138.972C127.583 139.782 127.063 140.746 126.749 141.797C126.543 142.264 126.423 142.772 126.397 143.289C126.371 143.807 126.439 144.325 126.597 144.814C126.632 144.875 126.657 144.942 126.669 145.013C126.68 145.083 126.679 145.156 126.665 145.226C126.651 145.296 126.624 145.363 126.586 145.421C126.548 145.48 126.5 145.53 126.445 145.569C126.359 145.596 126.269 145.601 126.182 145.584Z" fill="#263238"/>
<path d="M121.055 186.66C120.82 187.64 121.055 188.575 121.718 188.741C122.381 188.907 122.989 188.228 123.211 187.233C123.432 186.237 123.128 185.302 122.533 185.151C121.939 185 121.276 185.664 121.055 186.66Z" fill="#263238"/>
<path d="M160.276 160.608C160.718 162.886 162.211 164.455 163.579 164.138C164.947 163.821 165.693 161.694 165.237 159.431C164.781 157.169 163.302 155.57 161.934 155.902C160.566 156.233 159.82 158.391 160.276 160.608Z" fill="#263238"/>
<path d="M164.601 159.899C164.538 159.901 164.475 159.889 164.415 159.865C164.356 159.84 164.301 159.803 164.255 159.755C164.209 159.708 164.172 159.65 164.146 159.587C164.12 159.524 164.106 159.456 164.104 159.386C163.814 151.044 160.911 140.681 155.259 137.619C155.142 137.554 155.054 137.442 155.012 137.306C154.971 137.171 154.98 137.023 155.038 136.895C155.066 136.83 155.105 136.773 155.154 136.725C155.203 136.678 155.26 136.642 155.322 136.619C155.384 136.597 155.45 136.588 155.515 136.594C155.58 136.6 155.644 136.62 155.701 136.653C161.754 139.927 164.781 150.411 165.085 159.281C165.091 159.352 165.083 159.423 165.062 159.491C165.041 159.558 165.007 159.62 164.963 159.673C164.919 159.725 164.865 159.767 164.805 159.796C164.745 159.824 164.681 159.839 164.615 159.839L164.601 159.899Z" fill="#263238"/>
<path d="M158.797 160.804C159.087 162.75 160.373 164.138 161.672 163.912C162.971 163.685 163.8 161.92 163.51 159.959C163.22 157.998 161.92 156.626 160.621 156.852C159.322 157.078 158.507 158.843 158.797 160.804Z" fill="white"/>
<path d="M158.687 160.97C159.101 163.384 160.262 165.164 161.271 164.952C162.28 164.741 162.736 162.629 162.321 160.216C161.907 157.802 160.746 156.022 159.737 156.233C158.728 156.445 158.258 158.557 158.687 160.97Z" fill="#263238"/>
<path d="M110.607 183.809C110.386 184.804 110.69 185.739 111.284 185.89C111.878 186.041 112.542 185.392 112.777 184.382C113.012 183.371 112.694 182.466 112.099 182.3C111.505 182.134 110.842 182.828 110.607 183.809Z" fill="#263238"/>
<path d="M261.991 60.9728C253.243 62.6774 252.137 61.8025 252.027 54.9389C251.916 48.0753 248.738 36.6259 253.16 33.0357C253.464 32.7215 253.837 32.4998 254.244 32.3925C254.65 32.2853 255.076 32.2963 255.477 32.4246C255.878 32.5528 256.242 32.7937 256.532 33.1233C256.821 33.4529 257.026 33.8597 257.126 34.3029C257.396 33.55 257.922 32.9399 258.594 32.5998C259.266 32.2598 260.033 32.216 260.733 32.4776C260.913 31.0596 261.12 27.4242 263.497 26.4437C265.875 25.4632 268.058 27.8164 268.058 27.8164C268.058 27.8164 267.878 22.2199 271.333 22.763C272.365 22.9429 273.323 23.458 274.082 24.241C274.841 25.0241 275.367 26.0387 275.59 27.1527C275.59 27.1527 277.58 23.9849 280.275 25.2369C282.97 26.4889 282.403 30.1696 282.403 30.1696C282.403 30.1696 285.264 28.6611 287.392 30.3657C289.521 32.0703 287.973 34.8007 287.973 34.8007C287.973 34.8007 289.907 29.3701 293.597 32.372C296.914 35.0873 293.901 39.3412 293.901 39.3412C293.901 39.3412 297.55 38.6926 298.434 40.6988C301.42 47.5323 290.046 55.1652 289.673 66.7051C272.204 73.9156 261.991 60.9728 261.991 60.9728Z" fill="#263238"/>
<path d="M198.944 244.374L193.112 243.197L185.401 251.238C184.981 251.674 184.65 252.201 184.428 252.786C184.207 253.371 184.1 253.999 184.115 254.632L184.226 261.209C184.24 262.333 184.636 263.412 185.339 264.235C186.042 265.057 187 265.565 188.026 265.659L190.708 265.915C191.683 266.016 192.659 265.736 193.464 265.126C194.268 264.516 194.849 263.614 195.102 262.581L196.484 257.211C196.484 257.211 204.099 247.391 198.944 244.374Z" fill="#FFB573"/>
<path d="M257.845 124.088C253.934 135.145 250.037 146.247 246.278 157.38C242.519 168.512 238.787 179.69 235.291 190.687L234.669 192.724L234.241 194.051C234.075 194.549 233.909 195.062 233.757 195.454C233.107 197.249 232.458 198.727 231.808 200.221C230.509 203.238 229.196 205.938 227.87 208.668C225.202 214.099 222.452 219.333 219.674 224.553C214.146 235.006 208.618 245.219 202.897 255.582L185.304 243.635C191.108 233.784 196.705 223.617 202.068 213.465C204.707 208.367 207.305 203.253 209.724 198.184C210.926 195.65 212.087 193.116 213.11 190.642C213.593 189.45 214.077 188.228 214.395 187.233C214.506 186.946 214.547 186.75 214.616 186.554L214.837 185.77L215.473 183.567C218.804 171.982 222.3 160.789 225.672 149.43L235.788 115.474L257.845 124.088Z" fill="#407BFF"/>
<path opacity="0.6" d="M257.845 124.088C253.934 135.145 250.037 146.247 246.278 157.38C242.519 168.512 238.787 179.69 235.291 190.687L234.669 192.724L234.241 194.051C234.075 194.549 233.909 195.062 233.757 195.454C233.107 197.249 232.458 198.727 231.808 200.221C230.509 203.238 229.196 205.938 227.87 208.668C225.202 214.099 222.452 219.333 219.674 224.553C214.146 235.006 208.618 245.219 202.897 255.582L185.304 243.635C191.108 233.784 196.705 223.617 202.068 213.465C204.707 208.367 207.305 203.253 209.724 198.184C210.926 195.65 212.087 193.116 213.11 190.642C213.593 189.45 214.077 188.228 214.395 187.233C214.506 186.946 214.547 186.75 214.616 186.554L214.837 185.77L215.473 183.567C218.804 171.982 222.3 160.789 225.672 149.43L235.788 115.474L257.845 124.088Z" fill="white"/>
<path d="M205.136 527.833L192.739 528.497L198.599 493.258L210.387 496.215L205.136 527.833Z" fill="#FFB573"/>
<path d="M294.067 528.346H281.671L281.712 497.015H294.095L294.067 528.346Z" fill="#FFB573"/>
<path d="M280.496 526.777H295.601C295.844 526.773 296.08 526.863 296.268 527.032C296.455 527.2 296.581 527.436 296.624 527.697L298.614 539.765C298.658 540.064 298.642 540.369 298.567 540.66C298.492 540.951 298.36 541.221 298.18 541.451C298 541.681 297.776 541.865 297.524 541.99C297.272 542.116 296.998 542.18 296.721 542.179C291.856 542.088 288.318 541.771 282.196 541.771C278.437 541.771 266.994 542.194 261.853 542.194C256.712 542.194 256.187 536.582 258.329 536.069C268.003 533.791 275.286 530.654 278.451 527.652C279.012 527.097 279.739 526.786 280.496 526.777Z" fill="#263238"/>
<path opacity="0.2" d="M198.599 493.274L195.89 509.565L207.679 512.522L210.387 496.23L198.599 493.274Z" fill="black"/>
<path opacity="0.2" d="M294.095 497.015H281.698V513.155H294.095V497.015Z" fill="black"/>
<path d="M304.073 123.695C294.399 171.198 296.97 218.081 295.933 228.233L229.777 223.466C222.867 166.144 230.578 129.579 234.959 114.584C235.671 112.109 237.018 109.909 238.84 108.243C240.663 106.578 242.884 105.517 245.241 105.186C255.079 104.01 264.986 103.672 274.871 104.176C281.564 104.613 288.207 105.714 294.717 107.464C297.927 108.266 300.715 110.426 302.469 113.468C304.223 116.511 304.8 120.189 304.073 123.695Z" fill="#407BFF"/>
<path d="M284.131 71.9848C281.947 80.9301 279.363 96.7691 283.523 104.779C284.172 106.031 282.929 107.102 282.873 108.55C282.721 112.985 277.221 114.313 267.381 114.373C257.541 114.433 253.326 109.953 256.007 105.729C256.418 105.086 257.043 104.642 257.748 104.493C266.966 102.245 267.146 94.3555 265.888 86.8282L284.131 71.9848Z" fill="#FFB573"/>
<path opacity="0.4" d="M266.676 111.914C269.261 115.838 270.901 120.408 271.444 125.204C281.27 120.166 285.955 107.932 285.955 107.932L282.998 104.477C282.998 104.477 272.08 106.725 266.676 111.914Z" fill="black"/>
<path opacity="0.4" d="M265.709 111.96C262.091 115.174 259.038 119.079 256.698 123.484C249.83 118.838 252.096 105.594 252.096 105.594L257.693 104.387C257.693 104.387 260.195 106.906 265.709 111.96Z" fill="black"/>
<path d="M266.151 111.628L264.037 111.854L260.457 114.433C260.229 115.987 260.482 117.58 261.176 118.959C263.255 119.402 265.377 119.559 267.492 119.427C268.911 118.679 270.041 117.407 270.684 115.836L268.058 112.171L266.151 111.628Z" fill="#263238"/>
<path d="M266.151 111.628C268.806 115.255 270.842 119.373 272.163 123.786C281.989 118.748 287.71 106.71 287.71 106.71L282.97 102.185C282.97 102.185 271.554 106.469 266.151 111.628Z" fill="#407BFF"/>
<path d="M266.151 111.628C262.358 114.239 259.041 117.594 256.366 121.523C249.456 116.892 252.096 104.417 252.096 104.417L257.693 103.21C257.693 103.21 260.651 106.604 266.151 111.628Z" fill="#407BFF"/>
<path opacity="0.2" d="M276.696 78.0338L265.916 86.8131C266.243 88.6278 266.423 90.4701 266.455 92.3191C270.338 92.0023 275.922 87.7936 276.599 83.3889C276.924 81.6244 276.956 79.8108 276.696 78.0338Z" fill="black"/>
<path d="M286.107 57.2016C284.545 70.5215 284.255 78.3204 277.649 84.8219C267.713 94.4611 252.967 87.2506 250.852 73.6893C248.945 61.4857 251.82 41.7548 264.133 37.3047C266.844 36.3073 269.744 36.0831 272.557 36.6536C275.37 37.224 278.002 38.5701 280.204 40.5639C282.406 42.5577 284.104 45.133 285.137 48.045C286.171 50.957 286.504 54.1091 286.107 57.2016Z" fill="#FFB573"/>
<path d="M283.122 69.2393C280.358 66.3279 282.085 52.3896 283.481 48.3921C276.571 49.1162 254.238 49.086 255.081 42.3582C255.924 35.6303 264.05 29.9132 277.331 34.6347C288.387 38.5719 291.151 44.5907 291.151 49.5084C291.317 59.6152 283.122 69.2393 283.122 69.2393Z" fill="#263238"/>
<path d="M290.391 69.3901C289.079 72.1279 286.836 74.1962 284.144 75.1525C280.62 76.3442 278.879 72.7993 279.874 68.9979C280.759 65.5888 283.675 60.8371 287.199 61.3198C290.723 61.8025 292.008 65.9961 290.391 69.3901Z" fill="#FFB573"/>
<path d="M191.855 505.432L212.35 510.365C212.35 510.365 232.278 425.12 238.193 383.456C240.004 370.785 244.205 352.698 248.033 333.676C252.856 309.691 258.923 283.745 263.898 263.426C269.15 242.021 273.047 226.634 273.047 226.634L229.777 223.512C229.777 223.512 209.641 335.004 205.578 376.049C201.335 418.709 191.855 505.432 191.855 505.432Z" fill="#263238"/>
<path opacity="0.2" d="M248.033 333.646C252.856 309.661 258.923 283.715 263.898 263.396L259.352 252.837C248.613 266.835 245.863 310.144 248.033 333.646Z" fill="black"/>
<path d="M250.396 224.96C250.396 224.96 259.352 338.896 262.834 378.342C266.704 421.545 277.083 510.048 277.083 510.048H297.896C297.896 510.048 298.835 415.798 295.132 374.073C294.606 292.042 295.919 228.248 295.919 228.248L250.396 224.96Z" fill="#263238"/>
<path d="M274.429 510.576H301.157V501.857L273.393 500.182L274.429 510.576Z" fill="#407BFF"/>
<path d="M189.174 505.341L213.594 511.224L215.335 502.611L189.768 495.582L189.174 505.341Z" fill="#407BFF"/>
<path d="M268.266 59.585C268.266 60.6711 267.616 61.5159 266.966 61.4706C266.317 61.4254 265.833 60.5052 265.902 59.4191C265.971 58.333 266.552 57.4882 267.201 57.5335C267.851 57.5787 268.335 58.4989 268.266 59.585Z" fill="#263238"/>
<path d="M256.988 58.8308C256.988 59.9169 256.339 60.7616 255.689 60.7164C255.04 60.6711 254.556 59.751 254.625 58.6649C254.694 57.5787 255.275 56.734 255.924 56.7792C256.574 56.8245 257.057 57.6843 256.988 58.8308Z" fill="#263238"/>
<path d="M259.573 59.585C258.179 62.8211 256.389 65.8355 254.252 68.5454C255.897 70.4763 258.951 69.8729 258.951 69.8729L259.573 59.585Z" fill="#ED893E"/>
<path d="M262.986 73.0859C264.106 73.017 265.202 72.7007 266.207 72.1562C267.211 71.6117 268.104 70.8503 268.832 69.9181C268.883 69.8592 268.912 69.7809 268.912 69.6994C268.912 69.6179 268.883 69.5396 268.832 69.4807C268.776 69.4234 268.702 69.3916 268.625 69.3916C268.548 69.3916 268.474 69.4234 268.417 69.4807C267.597 70.5028 266.568 71.3001 265.413 71.8084C264.258 72.3168 263.01 72.5218 261.77 72.4071C261.732 72.403 261.693 72.4071 261.657 72.4193C261.62 72.4315 261.586 72.4515 261.556 72.4781C261.527 72.5048 261.502 72.5375 261.484 72.5745C261.466 72.6115 261.455 72.6521 261.452 72.6937C261.448 72.7793 261.475 72.8632 261.526 72.9279C261.578 72.9926 261.65 73.033 261.728 73.0407C262.146 73.0835 262.566 73.0986 262.986 73.0859Z" fill="#263238"/>
<path d="M271.016 55.8138C271.114 55.8015 271.208 55.7655 271.292 55.7082C271.423 55.6155 271.515 55.47 271.549 55.3035C271.583 55.1369 271.555 54.9626 271.472 54.8182C270.978 53.9503 270.302 53.2237 269.499 52.6989C268.696 52.1742 267.79 51.8664 266.856 51.8013C266.715 51.8248 266.587 51.9024 266.495 52.02C266.403 52.1376 266.352 52.2874 266.352 52.4424C266.352 52.5973 266.403 52.7471 266.495 52.8647C266.587 52.9823 266.715 53.0599 266.856 53.0835C267.593 53.1429 268.307 53.3928 268.939 53.8124C269.571 54.232 270.103 54.8094 270.49 55.497C270.542 55.5982 270.619 55.6815 270.711 55.7375C270.804 55.7935 270.91 55.82 271.016 55.8138Z" fill="#263238"/>
<path d="M251.419 54.1998C251.515 54.1924 251.608 54.1597 251.69 54.1046C251.771 54.0494 251.84 53.9733 251.889 53.883C252.241 53.182 252.741 52.5817 253.346 52.1309C253.951 51.68 254.645 51.3914 255.371 51.2884C255.525 51.2731 255.668 51.1944 255.771 51.0683C255.874 50.9422 255.928 50.7782 255.924 50.6096C255.914 50.4402 255.843 50.2821 255.726 50.1692C255.61 50.0564 255.458 49.9979 255.302 50.0062C254.375 50.1285 253.487 50.4925 252.715 51.0674C251.943 51.6424 251.309 52.4114 250.866 53.3097C250.792 53.4559 250.773 53.6283 250.814 53.7894C250.856 53.9505 250.954 54.0872 251.087 54.1696C251.191 54.2209 251.308 54.2316 251.419 54.1998Z" fill="#263238"/>
<path d="M276.309 529.13C277.409 529.101 278.503 528.939 279.57 528.647C279.626 528.633 279.677 528.601 279.716 528.556C279.756 528.51 279.782 528.453 279.791 528.391C279.806 528.332 279.803 528.27 279.784 528.213C279.764 528.156 279.728 528.107 279.681 528.074C279.239 527.757 275.341 525.057 273.932 525.842C273.779 525.929 273.65 526.058 273.558 526.217C273.466 526.376 273.414 526.559 273.406 526.747C273.357 527.057 273.381 527.377 273.475 527.675C273.57 527.973 273.731 528.24 273.945 528.451C274.638 528.969 275.473 529.208 276.309 529.13ZM278.727 528.195C276.613 528.662 274.996 528.572 274.346 527.953C274.199 527.811 274.088 527.628 274.025 527.425C273.962 527.221 273.949 527.003 273.987 526.792C273.987 526.551 274.097 526.46 274.18 526.415C274.913 526.023 277.152 527.169 278.727 528.195Z" fill="#407BFF"/>
<path d="M279.501 528.663C279.55 528.684 279.604 528.684 279.653 528.663C279.7 528.635 279.739 528.593 279.766 528.543C279.793 528.492 279.806 528.434 279.805 528.376C279.805 528.21 279.653 524.303 278.257 523.021C278.089 522.86 277.891 522.74 277.676 522.669C277.461 522.599 277.235 522.58 277.013 522.614C276.792 522.614 276.577 522.696 276.404 522.847C276.231 522.998 276.11 523.208 276.06 523.443C275.742 524.952 278.105 527.969 279.363 528.678C279.409 528.688 279.457 528.683 279.501 528.663ZM277.207 523.172C277.453 523.174 277.689 523.277 277.87 523.458C278.755 524.273 279.073 526.551 279.169 527.697C277.939 526.641 276.405 524.394 276.626 523.504C276.626 523.428 276.627 523.232 277.069 523.187H277.207V523.172Z" fill="#407BFF"/>
<path d="M190.887 522.538L205.426 527.064C205.658 527.136 205.86 527.295 205.996 527.513C206.132 527.73 206.194 527.993 206.172 528.255L205.094 540.429C205.059 540.728 204.965 541.016 204.819 541.272C204.672 541.528 204.477 541.747 204.246 541.913C204.015 542.079 203.754 542.189 203.481 542.235C203.207 542.281 202.928 542.261 202.662 542.179C198.005 540.67 194.688 539.297 188.842 537.472C185.221 536.356 173.433 531.74 169.135 528.542C164.837 525.344 167.366 520.411 169.397 521.316C178.532 525.359 184.958 524.71 188.745 522.825C189.406 522.456 190.165 522.354 190.887 522.538Z" fill="#263238"/>
<path d="M186.257 523.564C187.326 523.854 188.419 524.021 189.519 524.062C189.578 524.066 189.637 524.051 189.689 524.019C189.74 523.986 189.782 523.938 189.809 523.881C189.842 523.83 189.859 523.769 189.859 523.707C189.859 523.645 189.842 523.584 189.809 523.534C189.464 523.111 186.382 519.37 184.848 519.687C184.677 519.728 184.519 519.816 184.388 519.943C184.258 520.07 184.159 520.231 184.102 520.411C183.982 520.693 183.928 521.004 183.945 521.314C183.962 521.625 184.049 521.926 184.198 522.191C184.725 522.887 185.45 523.37 186.257 523.564ZM188.828 523.383C186.672 523.202 185.138 522.629 184.682 521.874C184.589 521.687 184.54 521.477 184.54 521.263C184.54 521.05 184.589 520.84 184.682 520.652C184.765 520.411 184.875 520.366 184.972 520.351C185.76 520.155 187.556 521.935 188.828 523.443V523.383Z" fill="#407BFF"/>
<path d="M189.45 524.047C189.504 524.062 189.561 524.062 189.616 524.047C189.669 524.032 189.718 524.002 189.757 523.959C189.796 523.917 189.824 523.864 189.837 523.805C189.837 523.654 190.694 519.853 189.685 518.194C189.561 517.992 189.4 517.82 189.212 517.69C189.024 517.56 188.813 517.475 188.593 517.439C188.379 517.374 188.151 517.39 187.945 517.483C187.74 517.576 187.569 517.741 187.46 517.952C186.769 519.31 188.317 522.87 189.326 523.986C189.362 524.017 189.404 524.038 189.45 524.047ZM188.607 518.088C188.843 518.16 189.046 518.327 189.174 518.556C189.837 519.612 189.56 521.905 189.381 523.081C188.455 521.709 187.57 519.099 187.999 518.299C187.999 518.224 188.123 518.058 188.51 518.118L188.607 518.088Z" fill="#407BFF"/>
<path d="M284.338 103.603C284.191 103.577 284.041 103.588 283.898 103.635C283.756 103.682 283.625 103.764 283.516 103.875C283.407 103.985 283.322 104.121 283.268 104.273C283.214 104.424 283.193 104.587 283.205 104.749C283.689 112.834 272.149 127.376 269.385 170.926C267.74 197.415 266.234 280.004 267.34 322.966C267.356 323.53 267.489 324.082 267.73 324.581C267.971 325.08 268.313 325.512 268.73 325.845C269.147 326.178 269.628 326.403 270.137 326.503C270.645 326.602 271.168 326.574 271.665 326.42C292.064 320.205 301.696 335.275 305.621 317.505C305.414 296.221 299.513 219.801 301.033 201.684C302.553 183.567 308.869 134.345 310.444 121.222C311.84 109.817 290.046 104.734 284.338 103.603Z" fill="#407BFF"/>
<path opacity="0.7" d="M284.338 103.603C284.191 103.577 284.041 103.588 283.898 103.635C283.756 103.682 283.625 103.764 283.516 103.875C283.407 103.985 283.322 104.121 283.268 104.273C283.214 104.424 283.193 104.587 283.205 104.749C283.689 112.834 272.149 127.376 269.385 170.926C267.74 197.415 266.234 280.004 267.34 322.966C267.356 323.53 267.489 324.082 267.73 324.581C267.971 325.08 268.313 325.512 268.73 325.845C269.147 326.178 269.628 326.403 270.137 326.503C270.645 326.602 271.168 326.574 271.665 326.42C292.064 320.205 301.696 335.275 305.621 317.505C305.414 296.221 299.513 219.801 301.033 201.684C302.553 183.567 308.869 134.345 310.444 121.222C311.84 109.817 290.046 104.734 284.338 103.603Z" fill="white"/>
<path opacity="0.2" d="M297.785 140.515C296.887 147.243 296.541 174.426 302.47 187.504C303.465 178.453 304.764 167.698 306.022 157.335L297.785 140.515Z" fill="#407BFF"/>
<path d="M306.257 258.071L300.369 258.825L295.159 268.977C294.873 269.527 294.696 270.136 294.639 270.764C294.582 271.393 294.646 272.028 294.827 272.628L296.707 278.873C297.026 279.942 297.698 280.843 298.592 281.4C299.486 281.958 300.538 282.133 301.544 281.89L304.17 281.287C305.135 281.073 305.998 280.49 306.606 279.645C307.214 278.799 307.526 277.745 307.486 276.671L307.321 271.119C307.321 271.119 311.992 259.338 306.257 258.071Z" fill="#FFB573"/>
<path d="M309.49 116.153C311.37 122.187 313.111 128.146 314.839 134.179C316.566 140.213 318.294 146.247 319.925 152.281C321.555 158.315 323.131 164.485 324.582 170.775C325.301 173.928 325.964 177.111 326.6 180.445C326.89 182.119 327.18 183.824 327.415 185.634C327.526 186.569 327.65 187.429 327.719 188.47L327.843 189.978L327.913 191.683C327.94 192.256 327.94 192.83 327.913 193.402C327.913 194.006 327.913 194.579 327.843 195.047L327.719 196.555L327.567 197.913C327.374 199.738 327.125 201.397 326.876 203.057C326.379 206.345 325.798 209.513 325.204 212.651C324.015 218.926 322.689 225.065 321.348 231.175C320.007 237.284 318.584 243.378 317.202 249.458L313.056 267.695L293.045 261.767C296.14 249.986 298.96 237.993 301.572 226.076C302.843 220.042 304.032 214.129 305.096 208.231C305.621 205.214 306.118 202.348 306.478 199.512C306.685 198.094 306.851 196.691 306.961 195.424C307.069 194.423 307.106 193.414 307.072 192.407V191.773L306.975 190.959C306.975 190.446 306.809 189.767 306.726 189.179C306.533 187.912 306.284 186.569 306.008 185.196C305.441 182.451 304.764 179.615 304.032 176.764C302.65 171.047 300.894 165.254 299.112 159.492C295.588 147.967 291.621 136.367 287.531 125.083L309.49 116.153Z" fill="#407BFF"/>
<path opacity="0.7" d="M309.49 116.153C311.37 122.187 313.111 128.146 314.839 134.179C316.566 140.213 318.294 146.247 319.925 152.281C321.555 158.315 323.131 164.485 324.582 170.775C325.301 173.928 325.964 177.111 326.6 180.445C326.89 182.119 327.18 183.824 327.415 185.634C327.526 186.569 327.65 187.429 327.719 188.47L327.843 189.978L327.913 191.683C327.94 192.256 327.94 192.83 327.913 193.402C327.913 194.006 327.913 194.579 327.843 195.047L327.719 196.555L327.567 197.913C327.374 199.738 327.125 201.397 326.876 203.057C326.379 206.345 325.798 209.513 325.204 212.651C324.015 218.926 322.689 225.065 321.348 231.175C320.007 237.284 318.584 243.378 317.202 249.458L313.056 267.695L293.045 261.767C296.14 249.986 298.96 237.993 301.572 226.076C302.843 220.042 304.032 214.129 305.096 208.231C305.621 205.214 306.118 202.348 306.478 199.512C306.685 198.094 306.851 196.691 306.961 195.424C307.069 194.423 307.106 193.414 307.072 192.407V191.773L306.975 190.959C306.975 190.446 306.809 189.767 306.726 189.179C306.533 187.912 306.284 186.569 306.008 185.196C305.441 182.451 304.764 179.615 304.032 176.764C302.65 171.047 300.894 165.254 299.112 159.492C295.588 147.967 291.621 136.367 287.531 125.083L309.49 116.153Z" fill="white"/>
<path d="M257.458 102.471C257.762 102.469 258.06 102.561 258.318 102.736C258.576 102.911 258.783 103.163 258.914 103.462C259.046 103.761 259.097 104.094 259.062 104.423C259.027 104.753 258.907 105.065 258.716 105.322C255.427 109.486 253.354 115.203 249.456 133.546C244.758 155.675 234.752 267.016 232.872 321.578C232.863 322.031 232.764 322.477 232.581 322.885C232.399 323.292 232.138 323.652 231.816 323.938C231.494 324.225 231.12 324.432 230.717 324.546C230.315 324.659 229.895 324.676 229.486 324.595C219.73 322.634 213.041 327.793 211.976 320.96C210.802 313.417 215.183 241.372 223.378 207.492C222.093 177.443 226.736 117.164 236.009 109.154C241.04 104.704 251.737 102.577 257.458 102.471Z" fill="#407BFF"/>
<path opacity="0.7" d="M257.458 102.471C257.762 102.469 258.06 102.561 258.318 102.736C258.576 102.911 258.783 103.163 258.914 103.462C259.046 103.761 259.097 104.094 259.062 104.423C259.027 104.753 258.907 105.065 258.716 105.322C255.427 109.486 253.354 115.203 249.456 133.546C244.758 155.675 234.752 267.016 232.872 321.578C232.863 322.031 232.764 322.477 232.581 322.885C232.399 323.292 232.138 323.652 231.816 323.938C231.494 324.225 231.12 324.432 230.717 324.546C230.315 324.659 229.895 324.676 229.486 324.595C219.73 322.634 213.041 327.793 211.976 320.96C210.802 313.417 215.183 241.372 223.378 207.492C222.093 177.443 226.736 117.164 236.009 109.154C241.04 104.704 251.737 102.577 257.458 102.471Z" fill="white"/>
<path d="M262.834 117.42C262.834 117.42 250.894 154.031 246.692 184.714C246.361 193.056 249.995 209.211 252.939 216.256C259.089 201.639 262.931 193.025 263.539 184.714C264.52 172.208 266.137 117.662 266.137 117.662L262.834 117.42Z" fill="#263238"/>
<path d="M287.821 160.97C287.7 160.966 287.583 160.918 287.49 160.835C287.396 160.751 287.33 160.636 287.302 160.508C287.273 160.379 287.284 160.244 287.333 160.123C287.382 160.003 287.466 159.903 287.572 159.839L289.838 158.541C291.954 157.353 293.688 155.49 294.809 153.199C295.93 150.909 296.385 148.299 296.113 145.719L293.653 121.403C293.471 119.59 292.736 117.897 291.565 116.596C290.395 115.295 288.857 114.463 287.2 114.233C285.542 114.003 283.862 114.389 282.431 115.328C280.999 116.268 279.899 117.706 279.308 119.411L271.347 142.265C270.49 144.687 270.329 147.336 270.884 149.861C271.439 152.386 272.686 154.666 274.457 156.399L276.364 158.285C276.465 158.398 276.522 158.549 276.522 158.707C276.522 158.865 276.465 159.017 276.364 159.13C276.261 159.24 276.122 159.302 275.977 159.302C275.832 159.302 275.693 159.24 275.59 159.13L273.683 157.259C271.753 155.357 270.399 152.86 269.799 150.099C269.199 147.337 269.383 144.442 270.325 141.797L278.354 118.989C279.04 117.04 280.305 115.399 281.946 114.328C283.588 113.258 285.511 112.819 287.408 113.084C289.305 113.348 291.066 114.299 292.409 115.786C293.752 117.272 294.598 119.208 294.814 121.282L297.274 145.584C297.565 148.411 297.059 151.269 295.825 153.775C294.59 156.282 292.685 158.318 290.364 159.612L288.097 160.895C288.015 160.952 287.918 160.979 287.821 160.97Z" fill="#263238"/>
<path d="M294.676 126.712C294.544 126.714 294.416 126.662 294.317 126.568C294.218 126.473 294.153 126.342 294.137 126.2C293.815 124.244 292.905 122.461 291.551 121.133C290.197 119.805 288.476 119.008 286.66 118.868C283.592 118.446 279.418 119.502 277.746 123.907C277.722 123.985 277.684 124.057 277.633 124.118C277.583 124.179 277.521 124.229 277.453 124.263C277.384 124.297 277.31 124.316 277.235 124.318C277.159 124.32 277.084 124.305 277.014 124.274C276.944 124.243 276.881 124.197 276.828 124.138C276.775 124.079 276.734 124.009 276.707 123.933C276.679 123.856 276.667 123.774 276.67 123.692C276.672 123.609 276.691 123.528 276.723 123.454C277.658 121.481 279.125 119.87 280.927 118.838C282.729 117.806 284.777 117.404 286.795 117.685C288.814 117.967 290.704 118.919 292.21 120.412C293.716 121.905 294.765 123.868 295.215 126.034C295.234 126.188 295.197 126.344 295.112 126.468C295.026 126.593 294.899 126.675 294.758 126.697L294.676 126.712Z" fill="#263238"/>
<path d="M287.24 114.237C287.168 114.234 287.098 114.214 287.033 114.18C286.968 114.146 286.91 114.098 286.862 114.039C286.814 113.98 286.778 113.911 286.755 113.836C286.732 113.761 286.723 113.682 286.729 113.604C286.895 110.662 286.508 105.307 283.965 103.919C283.835 103.845 283.737 103.718 283.693 103.565C283.649 103.412 283.662 103.247 283.73 103.105C283.798 102.963 283.915 102.856 284.055 102.808C284.195 102.76 284.346 102.774 284.476 102.848C288.152 104.915 287.821 112.789 287.766 113.679C287.759 113.827 287.701 113.967 287.603 114.071C287.506 114.174 287.376 114.234 287.24 114.237Z" fill="#263238"/>
<path d="M277.221 158.888C277.082 160.02 276.433 160.849 275.756 160.744C275.079 160.638 274.636 159.673 274.775 158.557C274.913 157.44 275.548 156.595 276.226 156.701C276.903 156.807 277.345 157.772 277.221 158.888Z" fill="#263238"/>
<path d="M245.089 134.436C244.219 136.834 242.325 138.283 240.943 137.664C239.561 137.046 239.022 134.647 239.893 132.188C240.764 129.729 242.657 128.342 244.039 128.96C245.421 129.579 245.946 132.037 245.089 134.436Z" fill="#263238"/>
<path d="M240.542 132.882H240.432C240.289 132.849 240.164 132.757 240.084 132.624C240.004 132.491 239.975 132.329 240.003 132.173C241.828 122.262 249.373 106.529 256.021 102.004C256.081 101.947 256.152 101.905 256.229 101.881C256.305 101.856 256.386 101.851 256.464 101.864C256.543 101.877 256.618 101.908 256.685 101.956C256.752 102.003 256.808 102.066 256.85 102.14C256.893 102.214 256.92 102.296 256.93 102.383C256.94 102.469 256.934 102.556 256.91 102.64C256.886 102.723 256.846 102.799 256.793 102.864C256.74 102.928 256.674 102.98 256.601 103.014C250.175 107.434 242.864 122.624 241.081 132.384C241.059 132.523 240.993 132.649 240.894 132.739C240.796 132.83 240.671 132.881 240.542 132.882Z" fill="#263238"/>
<path d="M246.665 134.934C246.029 137 244.398 138.283 243.016 137.785C241.634 137.287 241.012 135.19 241.634 133.108C242.256 131.027 243.901 129.76 245.283 130.257C246.665 130.755 247.3 132.852 246.665 134.934Z" fill="white"/>
<path d="M246.762 135.145C245.919 137.694 244.357 139.429 243.293 139.007C242.229 138.584 242.049 136.171 242.906 133.606C243.763 131.042 245.31 129.322 246.375 129.745C247.439 130.167 247.618 132.58 246.762 135.145Z" fill="#263238"/>
<path d="M289.051 160.548C288.926 161.664 288.263 162.494 287.586 162.403C286.909 162.313 286.466 161.317 286.605 160.201C286.743 159.085 287.392 158.255 288.07 158.345C288.747 158.436 289.189 159.416 289.051 160.548Z" fill="#263238"/>
<path d="M367.41 95.1852C372.026 108.958 359.754 115.882 351.711 136.171C343.667 156.46 363.071 180.656 392.853 181.184C422.635 181.712 423.575 150.577 418.959 128.236C414.343 105.895 423.989 102.26 421.944 85.1991C419.318 62.783 389.729 45.7975 377.982 66.3732C367.534 65.3022 363.375 83.1475 367.41 95.1852Z" fill="#263238"/>
<path d="M455.623 280.578V278.828C455.596 277.988 455.402 277.165 455.056 276.414L450.054 265.644L444.194 264.437C440.048 269.309 444.194 279.024 444.194 279.024V280.578C444.195 281.851 444.576 283.088 445.279 284.104C445.982 285.119 446.969 285.857 448.091 286.204L448.879 286.461C449.69 286.694 450.54 286.718 451.361 286.528C452.182 286.339 452.951 285.943 453.607 285.371C454.262 284.799 454.786 284.068 455.136 283.236C455.486 282.403 455.653 281.493 455.623 280.578Z" fill="#FFC3BD"/>
<path d="M430.788 142.024L432.944 158.526L435.211 174.984C435.957 180.49 436.745 185.966 437.546 191.457L439.937 207.808L440.228 209.423C440.324 209.951 440.49 210.629 440.615 211.218L441.029 213.073L441.513 214.989C442.135 217.523 442.895 220.148 443.558 222.742C444.94 227.947 446.529 233.211 448.091 238.446C451.27 248.9 454.587 259.399 458.124 269.717L438.583 277.259L428.798 245.37C427.181 240.045 425.537 234.72 423.975 229.289C423.201 226.559 422.427 223.859 421.695 221.038L421.128 218.941L420.589 216.754C420.41 216 420.216 215.336 420.05 214.506L419.539 212.032L416.651 195.439C415.729 189.968 414.767 184.497 413.762 179.027L410.805 162.614L407.723 146.323L430.788 142.024Z" fill="#407BFF"/>
<path opacity="0.6" d="M430.788 142.024L432.944 158.526L435.211 174.984C435.957 180.49 436.745 185.966 437.546 191.457L439.937 207.808L440.228 209.423C440.324 209.951 440.49 210.629 440.615 211.218L441.029 213.073L441.513 214.989C442.135 217.523 442.895 220.148 443.558 222.742C444.94 227.947 446.529 233.211 448.091 238.446C451.27 248.9 454.587 259.399 458.124 269.717L438.583 277.259L428.798 245.37C427.181 240.045 425.537 234.72 423.975 229.289C423.201 226.559 422.427 223.859 421.695 221.038L421.128 218.941L420.589 216.754C420.41 216 420.216 215.336 420.05 214.506L419.539 212.032L416.651 195.439C415.729 189.968 414.767 184.497 413.762 179.027L410.805 162.614L407.723 146.323L430.788 142.024Z" fill="white"/>
<path d="M427.679 140.756C428.329 148.797 427.748 168.799 420.354 218.383H369.22C370.036 196.842 370.091 183.115 361.619 142.008C361.427 141.084 361.41 140.127 361.57 139.195C361.73 138.263 362.063 137.377 362.548 136.591C363.034 135.805 363.662 135.136 364.393 134.625C365.125 134.115 365.945 133.773 366.802 133.621C371.794 132.726 376.828 132.127 381.88 131.826C389.618 131.222 397.386 131.222 405.125 131.826C411.482 132.46 418.378 133.712 422.552 134.541C423.911 134.823 425.149 135.583 426.075 136.706C427.001 137.828 427.564 139.251 427.679 140.756Z" fill="#263238"/>
<path d="M384.132 103.256C385.597 111.416 387.062 126.381 381.824 131.826C381.824 131.826 388.375 140.515 398.408 140.515C408.442 140.515 405.083 131.826 405.083 131.826C396.791 129.654 396.957 122.896 398.408 116.56L384.132 103.256Z" fill="#FFC3BD"/>
<path opacity="0.2" d="M389.951 108.686L398.395 116.545C398.036 118.028 397.796 119.543 397.676 121.071C394.483 120.573 389.481 117.601 388.79 113.815C388.472 112.02 389.674 109.531 389.951 108.686Z" fill="black"/>
<path d="M375.329 87.2355C377.278 100.721 377.844 106.469 384.727 112.774C395.092 122.262 409.838 116.696 411.62 102.848C413.223 90.3882 409.755 70.4159 397.123 66.2978C394.34 65.3739 391.387 65.2416 388.545 65.9135C385.702 66.5854 383.063 68.0392 380.88 70.1368C378.697 72.2344 377.041 74.9063 376.069 77.8988C375.098 80.8914 374.843 84.1053 375.329 87.2355Z" fill="#FFC3BD"/>
<path d="M377.388 96.9501C384.464 89.3021 386.896 78.6673 386.233 74.3229C393.046 76.3895 398.049 73.4631 397.745 72.1959C402.554 77.3248 411.275 81.3826 410.293 75.8616C409.312 70.3405 402.858 60.1583 389.398 63.7937C375.937 67.4291 370.754 82.514 370.948 88.6384C371.141 94.7628 377.388 96.9501 377.388 96.9501Z" fill="#263238"/>
<path d="M393.06 88.7591C393.157 89.8753 393.765 90.705 394.442 90.6447C395.119 90.5843 395.561 89.6189 395.465 88.5177C395.368 87.4165 394.746 86.5718 394.083 86.6321C393.419 86.6925 393.06 87.6579 393.06 88.7591Z" fill="#263238"/>
<path d="M404.544 87.5674C404.641 88.6686 405.263 89.5133 405.926 89.4379C406.59 89.3625 407.046 88.4272 406.949 87.326C406.852 86.2248 406.23 85.3801 405.567 85.4404C404.904 85.5008 404.448 86.4662 404.544 87.5674Z" fill="#263238"/>
<path d="M405.291 85.5309L407.654 84.5202C407.654 84.5202 406.576 86.7226 405.291 85.5309Z" fill="#263238"/>
<path d="M401.2 89.9206C402.317 92.3488 403.736 94.5974 405.415 96.6032C404.934 97.0575 404.369 97.3926 403.758 97.5853C403.148 97.7781 402.506 97.8238 401.877 97.7195L401.2 89.9206Z" fill="#ED847E"/>
<path d="M396.736 102.577C397.238 102.614 397.741 102.614 398.242 102.577C398.321 102.565 398.392 102.521 398.441 102.454C398.49 102.386 398.513 102.3 398.505 102.215C398.503 102.172 398.494 102.131 398.476 102.093C398.459 102.055 398.435 102.021 398.405 101.994C398.375 101.967 398.34 101.947 398.302 101.936C398.265 101.924 398.226 101.922 398.187 101.928C396.93 102.087 395.655 101.921 394.467 101.445C393.279 100.968 392.21 100.193 391.346 99.1827C391.293 99.1298 391.224 99.0994 391.152 99.0968C391.08 99.0943 391.009 99.1197 390.953 99.1686C390.896 99.2176 390.858 99.2868 390.844 99.364C390.83 99.4411 390.841 99.5212 390.876 99.59C391.624 100.486 392.527 101.211 393.532 101.723C394.538 102.236 395.627 102.526 396.736 102.577Z" fill="#263238"/>
<path d="M372.593 98.2022C373.515 100.644 375.283 102.59 377.513 103.618C380.47 104.945 382.336 102.109 381.824 98.8961C381.368 95.8791 379.268 91.7006 376.144 91.761C375.464 91.7972 374.803 92.0156 374.219 92.3969C373.635 92.7782 373.145 93.3107 372.794 93.9474C372.443 94.584 372.241 95.3052 372.206 96.0473C372.171 96.7893 372.304 97.5294 372.593 98.2022Z" fill="#FFC3BD"/>
<path d="M389.121 82.9665C389.24 83.0123 389.369 83.0166 389.491 82.9788C389.612 82.941 389.72 82.8629 389.798 82.7553C391.54 80.4172 395.091 80.6434 395.119 80.6434C395.276 80.6519 395.43 80.5938 395.548 80.4814C395.667 80.3689 395.741 80.2108 395.755 80.04C395.762 79.9544 395.754 79.868 395.73 79.786C395.706 79.7041 395.667 79.6283 395.615 79.5634C395.563 79.4985 395.5 79.4457 395.429 79.4084C395.358 79.371 395.281 79.3498 395.202 79.3461C395.036 79.3461 390.987 79.0746 388.872 81.9407C388.774 82.0758 388.727 82.2474 388.743 82.4192C388.758 82.591 388.835 82.7494 388.955 82.8609L389.121 82.9665Z" fill="#263238"/>
<path d="M408.704 81.5938C408.835 81.6025 408.965 81.5635 409.074 81.4831C409.182 81.4027 409.264 81.2852 409.305 81.1491C409.346 81.013 409.344 80.8659 409.301 80.7308C409.257 80.5956 409.174 80.48 409.064 80.4021C408.29 79.8063 407.398 79.4202 406.461 79.2759C405.523 79.1317 404.568 79.2333 403.674 79.5724C403.528 79.6421 403.414 79.7711 403.354 79.9317C403.295 80.0924 403.296 80.272 403.356 80.4323C403.386 80.5121 403.43 80.5846 403.487 80.6454C403.543 80.7062 403.61 80.7542 403.683 80.7865C403.756 80.8189 403.835 80.8348 403.914 80.8336C403.993 80.8323 404.071 80.8138 404.144 80.7792C404.854 80.521 405.61 80.4506 406.35 80.5739C407.09 80.6972 407.793 81.0105 408.4 81.4882C408.491 81.5523 408.596 81.5887 408.704 81.5938Z" fill="#263238"/>
<path d="M452.126 530.669L464.855 530.005L461.082 498.629L448.367 499.307L452.126 530.669Z" fill="#FFC3BD"/>
<g opacity="0.2">
<path d="M461.082 498.644L463.031 514.815L450.302 515.478L448.354 499.308L461.082 498.644Z" fill="black"/>
</g>
<path d="M420.354 218.383C420.354 218.383 436.372 324.354 442.895 365.671C449.694 408.633 465.007 509.746 465.007 509.746L448.174 512.763C448.174 512.763 425.482 411.544 416.388 369.457C406.521 323.524 382.612 261.933 382.861 218.504L420.354 218.383Z" fill="#407BFF"/>
<path opacity="0.2" d="M394.635 250.906C392.231 247.089 387.601 241.734 384.049 237.329C387.269 264.331 396.487 295.662 404.904 325.168C407.143 302.692 405.871 268.6 394.635 250.906Z" fill="black"/>
<path d="M373.601 528.542H386.205L387.048 496.683H374.43L373.601 528.542Z" fill="#FFC3BD"/>
<path d="M386.799 526.46H372.634C372.389 526.458 372.151 526.553 371.965 526.728C371.78 526.903 371.659 527.145 371.625 527.411L370.008 539.629C369.979 539.94 370.01 540.253 370.099 540.55C370.188 540.846 370.333 541.119 370.524 541.351C370.715 541.582 370.949 541.768 371.21 541.895C371.471 542.022 371.754 542.088 372.04 542.088C376.973 541.982 379.35 541.666 385.583 541.666C389.411 541.666 397.33 542.103 402.623 542.103C407.916 542.103 408.151 536.401 405.995 535.873C396.114 533.565 392.175 530.367 388.9 527.305C388.311 526.766 387.568 526.468 386.799 526.46Z" fill="#263238"/>
<g opacity="0.2">
<path d="M387.034 496.698L386.606 513.125H374.002L374.431 496.698H387.034Z" fill="black"/>
</g>
<path d="M405.968 218.383C405.968 218.383 400.855 325.711 397.4 367.496C393.793 410.971 389.453 509.49 389.453 509.49H372.399C372.399 509.49 369.359 411.348 370.547 368.477C371.832 321.714 361.537 261.812 368.488 218.383H405.968Z" fill="#407BFF"/>
<path d="M370.92 510.153L390.918 510.561L391.222 497.256L370.837 498.644L370.92 510.153Z" fill="#263238"/>
<path d="M391.526 528.919C392.602 529.027 393.68 528.729 394.58 528.074C394.783 527.877 394.939 527.627 395.033 527.348C395.127 527.069 395.156 526.77 395.119 526.475C395.109 526.298 395.058 526.126 394.971 525.976C394.884 525.825 394.764 525.701 394.622 525.615C393.074 524.68 388.043 527.486 387.477 527.818C387.424 527.85 387.381 527.899 387.354 527.958C387.327 528.018 387.317 528.084 387.325 528.15C387.332 528.216 387.359 528.278 387.401 528.327C387.444 528.376 387.499 528.409 387.559 528.421C388.864 528.725 390.192 528.892 391.526 528.919ZM393.778 526.068C393.969 526.063 394.158 526.104 394.331 526.189C394.39 526.222 394.438 526.272 394.472 526.333C394.507 526.394 394.525 526.464 394.525 526.536C394.555 526.727 394.539 526.924 394.479 527.106C394.418 527.289 394.315 527.451 394.179 527.576C393.419 528.331 391.346 528.466 388.555 527.954C390.184 527.004 391.951 526.366 393.778 526.068Z" fill="#407BFF"/>
<path d="M387.615 528.436H387.739C389.246 527.697 392.217 524.725 391.982 523.172C391.982 522.795 391.692 522.342 390.863 522.251C390.566 522.214 390.265 522.244 389.98 522.34C389.694 522.436 389.43 522.596 389.204 522.81C387.629 524.243 387.339 527.954 387.325 528.104C387.319 528.162 387.328 528.22 387.35 528.273C387.372 528.326 387.406 528.372 387.449 528.406C387.501 528.431 387.558 528.441 387.615 528.436ZM390.628 522.855H390.807C391.346 522.855 391.388 523.141 391.388 523.232C391.54 524.167 389.522 526.49 387.988 527.501C388.106 525.941 388.667 524.459 389.591 523.262C389.88 522.993 390.248 522.849 390.628 522.855Z" fill="#407BFF"/>
<path d="M464.703 526.46H450.537C450.423 526.452 450.31 526.472 450.204 526.518C450.098 526.564 450.003 526.635 449.925 526.726C449.847 526.817 449.788 526.925 449.753 527.043C449.718 527.162 449.707 527.287 449.722 527.411L450.44 539.629C450.524 540.293 450.82 540.903 451.275 541.352C451.73 541.802 452.315 542.062 452.928 542.088C457.848 541.982 460.17 541.666 466.389 541.666C470.231 541.666 478.232 542.103 483.526 542.103C488.819 542.103 488.003 536.401 485.709 535.873C475.386 533.565 470.88 530.367 466.969 527.305C466.311 526.777 465.52 526.482 464.703 526.46Z" fill="#263238"/>
<path d="M469.429 528.919C470.51 529.027 471.593 528.729 472.497 528.074C472.699 527.875 472.853 527.625 472.947 527.347C473.04 527.069 473.071 526.77 473.036 526.475C473.024 526.297 472.97 526.124 472.881 525.974C472.792 525.824 472.669 525.701 472.525 525.615C470.977 524.68 465.96 527.486 465.394 527.818C465.339 527.848 465.293 527.896 465.263 527.955C465.234 528.015 465.221 528.083 465.228 528.15C465.239 528.215 465.268 528.275 465.309 528.323C465.351 528.371 465.404 528.405 465.463 528.421C466.768 528.725 468.096 528.892 469.429 528.919ZM471.682 526.068C471.872 526.059 472.062 526.101 472.235 526.189C472.295 526.221 472.345 526.27 472.382 526.331C472.418 526.392 472.439 526.463 472.442 526.536C472.466 526.727 472.447 526.921 472.387 527.102C472.327 527.284 472.227 527.446 472.097 527.576C471.323 528.331 469.25 528.466 466.458 527.954C468.089 527.006 469.855 526.368 471.682 526.068Z" fill="#407BFF"/>
<path d="M465.532 528.436H465.656C467.149 527.697 470.12 524.725 469.885 523.172C469.885 522.795 469.595 522.342 468.766 522.252C468.471 522.214 468.173 522.245 467.89 522.341C467.606 522.437 467.345 522.597 467.121 522.81C465.532 524.243 465.242 527.954 465.228 528.104C465.226 528.162 465.237 528.219 465.258 528.271C465.28 528.323 465.312 528.369 465.352 528.406C465.409 528.432 465.471 528.442 465.532 528.436ZM468.531 522.855H468.711C469.25 522.855 469.291 523.142 469.305 523.232C469.443 524.167 467.425 526.49 465.891 527.501C466.015 525.942 466.575 524.462 467.494 523.262C467.784 522.996 468.152 522.851 468.531 522.855Z" fill="#407BFF"/>
<path d="M446.764 513.623L466.513 510.153L464.288 498.629L444.719 503.667L446.764 513.623Z" fill="#263238"/>
<path d="M393.848 86.7226L396.211 85.7119C396.211 85.7119 395.147 87.9143 393.848 86.7226Z" fill="#263238"/>
<path d="M368.391 215.109L367.092 220.118C366.912 220.495 367.327 220.902 367.921 220.902H420.603C421.073 220.902 421.446 220.646 421.474 220.329L421.944 215.336C421.944 214.989 421.571 214.687 421.073 214.687H369.234C369.072 214.672 368.909 214.703 368.762 214.777C368.614 214.851 368.486 214.966 368.391 215.109Z" fill="#263238"/>
<path d="M375.536 221.43H374.154C373.878 221.43 373.67 221.279 373.684 221.098L374.334 214.597C374.334 214.401 374.596 214.25 374.873 214.25H376.255C376.531 214.25 376.738 214.401 376.725 214.597L376.061 221.098C376.047 221.279 375.813 221.43 375.536 221.43Z" fill="#407BFF"/>
<path d="M416.706 221.43H415.324C415.048 221.43 414.827 221.279 414.854 221.098L415.504 214.597C415.504 214.401 415.766 214.25 416.043 214.25H417.425C417.701 214.25 417.908 214.401 417.895 214.597L417.245 221.098C417.217 221.279 416.982 221.43 416.706 221.43Z" fill="#407BFF"/>
<path d="M396.197 221.43H394.815C394.539 221.43 394.331 221.279 394.345 221.098L394.995 214.597C394.995 214.401 395.257 214.25 395.534 214.25H396.916C397.192 214.25 397.399 214.401 397.372 214.597L396.722 221.098C396.722 221.279 396.473 221.43 396.197 221.43Z" fill="#407BFF"/>
<path d="M379.613 131.374C371.584 132.173 359.311 130.514 359.685 143.954C360.058 157.395 357.667 192.995 358.303 209.664C358.938 226.333 354.958 334.264 361.398 365.55C362.531 371.056 404.13 370.347 409.16 369.819V364.857C409.16 364.857 439.385 360.422 446.861 361.84C446.212 343.044 429.476 248.1 428.826 221.43C428.177 194.76 430.927 148.932 430.761 141.662C430.595 134.391 417.355 131.193 409.243 131.374C411.04 137.936 407.073 150.26 400.73 164.002C385.127 147.409 380.525 139.173 379.613 131.374Z" fill="#407BFF"/>
<path opacity="0.7" d="M379.613 131.374C371.584 132.173 359.311 130.514 359.685 143.954C360.058 157.395 357.667 192.995 358.303 209.664C358.938 226.333 354.958 334.264 361.398 365.55C362.531 371.056 404.13 370.347 409.16 369.819V364.857C409.16 364.857 439.385 360.422 446.861 361.84C446.212 343.044 429.476 248.1 428.826 221.43C428.177 194.76 430.927 148.932 430.761 141.662C430.595 134.391 417.355 131.193 409.243 131.374C411.04 137.936 407.073 150.26 400.73 164.002C385.127 147.409 380.525 139.173 379.613 131.374Z" fill="white"/>
<path opacity="0.2" d="M364.328 163.248L359.187 167.215C358.786 178.831 358.247 191.849 358.192 201.91C362.974 190.37 365.669 173.717 364.328 163.248Z" fill="#407BFF"/>
<path d="M380.705 151.195C380.444 151.618 380.163 152.026 379.862 152.417L379.572 152.779L379.42 152.96L379.143 153.277L378.59 153.925L377.485 155.268C376.739 156.158 376.02 157.078 375.301 158.013C373.864 159.884 372.482 161.79 371.155 163.731C368.444 167.607 365.921 171.635 363.596 175.798C359.026 183.485 355.723 191.985 353.839 200.915C353.49 202.907 353.273 204.923 353.189 206.949C353.275 207.956 353.543 208.935 353.977 209.83C355.731 213.885 357.842 217.744 360.279 221.355C362.836 225.337 365.738 229.214 368.709 233.045C370.202 234.976 371.749 236.847 373.311 238.702C374.873 240.558 376.504 242.458 378.024 244.103L363.126 259.821C361.315 257.664 359.712 255.703 358.04 253.636L353.162 247.406C349.928 243.228 346.818 238.883 343.75 234.328C340.419 229.516 337.539 224.351 335.154 218.911C334.456 217.226 333.861 215.492 333.371 213.722C333.084 212.667 332.858 211.594 332.694 210.509C332.588 209.885 332.514 209.256 332.473 208.623C332.418 207.961 332.394 207.296 332.404 206.632C332.437 203.393 332.691 200.16 333.164 196.962C334.121 190.921 335.668 185.009 337.78 179.328C339.767 173.949 342.075 168.719 344.69 163.67C347.233 158.692 350.024 153.941 352.913 149.294C354.378 146.971 355.87 144.694 357.432 142.446L359.795 139.082L361.025 137.393L361.647 136.548L361.965 136.14L362.103 135.944L361.91 136.186C361.661 136.533 361.426 136.88 361.205 137.242L380.705 151.195Z" fill="#407BFF"/>
<path opacity="0.7" d="M380.705 151.195C380.444 151.618 380.163 152.026 379.862 152.417L379.572 152.779L379.42 152.96L379.143 153.277L378.59 153.925L377.485 155.268C376.739 156.158 376.02 157.078 375.301 158.013C373.864 159.884 372.482 161.79 371.155 163.731C368.444 167.607 365.921 171.635 363.596 175.798C359.026 183.485 355.723 191.985 353.839 200.915C353.49 202.907 353.273 204.923 353.189 206.949C353.275 207.956 353.543 208.935 353.977 209.83C355.731 213.885 357.842 217.744 360.279 221.355C362.836 225.337 365.738 229.214 368.709 233.045C370.202 234.976 371.749 236.847 373.311 238.702C374.873 240.558 376.504 242.458 378.024 244.103L363.126 259.821C361.315 257.664 359.712 255.703 358.04 253.636L353.162 247.406C349.928 243.228 346.818 238.883 343.75 234.328C340.419 229.516 337.539 224.351 335.154 218.911C334.456 217.226 333.861 215.492 333.371 213.722C333.084 212.667 332.858 211.594 332.694 210.509C332.588 209.885 332.514 209.256 332.473 208.623C332.418 207.961 332.394 207.296 332.404 206.632C332.437 203.393 332.691 200.16 333.164 196.962C334.121 190.921 335.668 185.009 337.78 179.328C339.767 173.949 342.075 168.719 344.69 163.67C347.233 158.692 350.024 153.941 352.913 149.294C354.378 146.971 355.87 144.694 357.432 142.446L359.795 139.082L361.025 137.393L361.647 136.548L361.965 136.14L362.103 135.944L361.91 136.186C361.661 136.533 361.426 136.88 361.205 137.242L380.705 151.195Z" fill="white"/>
<path opacity="0.3" d="M400.744 164.002C402.195 196.193 410.072 308.454 409.174 364.856L411.579 364.51C411.579 364.51 407.847 277.772 406.161 239.818C404.475 201.865 400.744 164.002 400.744 164.002Z" fill="#407BFF"/>
<path opacity="0.3" d="M376.863 244.374L362.103 261.812C362.103 267.665 358.358 279.371 368.281 283.625C378.203 287.879 378.466 257.015 376.863 244.374Z" fill="#407BFF"/>
<path opacity="0.3" d="M424.984 243.831L431.48 261.601C431.673 267.635 433.566 279.703 429.724 284.304C425.882 288.904 424.763 256.91 424.984 243.831Z" fill="#407BFF"/>
<path d="M408.856 175.21L425.067 175.089C425.229 175.097 425.39 175.066 425.539 175C425.689 174.933 425.824 174.831 425.934 174.702C426.044 174.573 426.128 174.42 426.178 174.252C426.229 174.085 426.246 173.907 426.228 173.732L425.33 165.345C425.276 164.982 425.109 164.65 424.857 164.405C424.606 164.161 424.284 164.018 423.948 164.002L407.723 164.108C407.562 164.103 407.402 164.135 407.253 164.203C407.105 164.27 406.971 164.372 406.861 164.5C406.752 164.629 406.668 164.781 406.616 164.948C406.565 165.114 406.546 165.291 406.562 165.465L407.46 173.868C407.517 174.232 407.687 174.564 407.941 174.808C408.195 175.053 408.518 175.195 408.856 175.21Z" fill="white" stroke="#407BFF" stroke-width="0.466762" stroke-miterlimit="10"/>
</svg>
